<svg xmlns="http://www.w3.org/2000/svg" xmlns:xlink="http://www.w3.org/1999/xlink" xml:space="preserve" style="shape-rendering:geometricPrecision;text-rendering:geometricPrecision;image-rendering:optimizeQuality;" viewBox="0 0 6827 8533.75" x="0px" y="0px" fill-rule="evenodd" clip-rule="evenodd"><defs><style type="text/css">
   
    .fil1 {fill:none}
    .fil0 {fill:white;fill-rule:nonzero}
   
  </style></defs><g><path class="fil0" d="M4701 1280l443 443 0 0c31,31 31,82 0,113l0 0 -324 324 0 0c-28,28 -70,31 -102,10 -74,-43 -154,-94 -243,-155 -91,-63 -186,-132 -286,-211l49 -63 -49 63c-35,-27 -41,-78 -13,-112 2,-3 5,-6 7,-8l404 -404 0 0c31,-31 82,-31 113,0l0 0zm273 499l-330 -330 -285 285c74,57 143,106 206,150 64,44 126,84 185,119l224 -224zm-1065 1292l-2475 2475 0 0c-31,31 -82,31 -113,0l0 0 -443 -443 57 -57 -57 57c-31,-31 -31,-82 0,-113l0 0 2546 -2546 0 0c31,-31 82,-31 113,0 4,4 7,7 9,11 72,90 138,177 200,262l-64 47 65 -47c1,1 2,2 2,4 63,87 120,171 172,250l0 0c21,33 15,75 -12,101zm-2532 2306l2374 -2374c-40,-60 -83,-122 -131,-188 -1,-1 -2,-2 -3,-3l0 0 0 0 0 0c-44,-60 -91,-123 -144,-190l-2426 2426 330 330z"/><path class="fil0" d="M5799 2555c-70,-7 -175,-24 -313,-68 -48,-15 -63,-20 -77,-24 -351,-108 -766,-236 -1598,-977l-294 294 -294 294c1005,1129 1112,1733 1094,1982 293,-74 624,-296 902,-574 286,-286 513,-628 580,-927zm-265 -220c212,67 323,66 347,65 7,-1 15,-1 22,0 44,5 75,45 70,89l0 0c-44,354 -304,771 -641,1108 -336,336 -751,596 -1104,641 -17,3 -35,0 -51,-9 -39,-21 -53,-70 -32,-108l70 38 -70 -38c1,-1 281,-474 -1086,-1989 -1,-1 -1,-1 -2,-2 -31,-31 -31,-82 0,-113l0 0 347 -347 347 -347c30,-31 79,-32 111,-3l-54 59 53 -59c844,762 1251,887 1595,993 38,12 75,23 78,24z"/><path class="fil0" d="M5545 2489c31,-31 31,-82 0,-113 -31,-31 -82,-31 -113,0l-1288 1288c-31,31 -31,82 0,113 31,31 82,31 113,0l1288 -1288z"/></g><rect class="fil1" width="6827" height="6827"/><text x="0" y="6842" fill="#000000" font-size="5px" font-weight="bold" font-family="'Helvetica Neue', Helvetica, Arial-Unicode, Arial, Sans-serif">Created by IYIKON</text><text x="0" y="6847" fill="#000000" font-size="5px" font-weight="bold" font-family="'Helvetica Neue', Helvetica, Arial-Unicode, Arial, Sans-serif">from the Noun Project</text></svg>